<?xml version="1.0" encoding="UTF-8" standalone="no"?>
<svg
   width="24"
   height="24"
   viewBox="0 0 24 24"
   fill="none"
   version="1.1"
   id="svg6"
   sodipodi:docname="dice-5.svg"
   inkscape:version="1.3.2 (091e20e, 2023-11-25, custom)"
   xmlns:inkscape="http://www.inkscape.org/namespaces/inkscape"
   xmlns:sodipodi="http://sodipodi.sourceforge.net/DTD/sodipodi-0.dtd"
   xmlns="http://www.w3.org/2000/svg"
   xmlns:svg="http://www.w3.org/2000/svg">
  <defs
     id="defs6" />
  <sodipodi:namedview
     id="namedview6"
     pagecolor="#ffffff"
     bordercolor="#000000"
     borderopacity="0.25"
     inkscape:showpageshadow="2"
     inkscape:pageopacity="0.0"
     inkscape:pagecheckerboard="0"
     inkscape:deskcolor="#d1d1d1"
     inkscape:zoom="64"
     inkscape:cx="8.203125"
     inkscape:cy="11.171875"
     inkscape:window-width="2560"
     inkscape:window-height="1359"
     inkscape:window-x="1912"
     inkscape:window-y="-8"
     inkscape:window-maximized="1"
     inkscape:current-layer="svg6" />
  <path
     d="M14.9451 7.05518C14.9451 5.95061 15.8405 5.05518 16.9451 5.05518C18.0496 5.05518 18.9451 5.95061 18.9451 7.05518C18.9451 8.15975 18.0496 9.05518 16.9451 9.05518C15.8405 9.05518 14.9451 8.15975 14.9451 7.05518Z"
     fill="currentColor"
     id="path1" />
  <path
     d="M16.9451 14.8921C15.8405 14.8921 14.9451 15.7875 14.9451 16.8921C14.9451 17.9967 15.8405 18.8921 16.9451 18.8921C18.0496 18.8921 18.9451 17.9967 18.9451 16.8921C18.9451 15.7875 18.0496 14.8921 16.9451 14.8921Z"
     fill="currentColor"
     id="path2" />
  <path
     d="M5.05518 16.8921C5.05518 15.7875 5.95061 14.8921 7.05518 14.8921C8.15975 14.8921 9.05518 15.7875 9.05518 16.8921C9.05518 17.9967 8.15975 18.8921 7.05518 18.8921C5.95061 18.8921 5.05518 17.9967 5.05518 16.8921Z"
     fill="currentColor"
     id="path3" />
  <path
     d="M7.05518 5.05518C5.95061 5.05518 5.05518 5.95061 5.05518 7.05518C5.05518 8.15975 5.95061 9.05518 7.05518 9.05518C8.15975 9.05518 9.05518 8.15975 9.05518 7.05518C9.05518 5.95061 8.15975 5.05518 7.05518 5.05518Z"
     fill="currentColor"
     id="path4" />
  <path
     d="M10 12C10 10.8954 10.8954 10 12 10C13.1046 10 14 10.8954 14 12C14 13.1046 13.1046 14 12 14C10.8954 14 10 13.1046 10 12Z"
     fill="currentColor"
     id="path5" />
  <path
     fill-rule="evenodd"
     clip-rule="evenodd"
     d="M1 4C1 2.34315 2.34315 1 4 1H20C21.6569 1 23 2.34315 23 4V20C23 21.6569 21.6569 23 20 23H4C2.34315 23 1 21.6569 1 20V4ZM4 3H20C20.5523 3 21 3.44772 21 4V20C21 20.5523 20.5523 21 20 21H4C3.44772 21 3 20.5523 3 20V4C3 3.44772 3.44772 3 4 3Z"
     fill="currentColor"
     id="path6" />
  <path
     style="fill:#950113;stroke-width:0.0218579"
     d="M 3.6721311,22.972225 C 3.6540984,22.96863 3.5655738,22.953799 3.4754098,22.939266 2.9522166,22.85494 2.3718581,22.562425 1.9610239,22.175978 1.4235914,21.670447 1.0961946,21.001248 1.0265425,20.265898 1.0106221,20.097819 1.005606,17.470522 1.0104272,11.825137 l 0.007,-8.1967217 0.048885,-0.212 C 1.2105116,2.7910591 1.4584695,2.3349878 1.8906807,1.9001461 2.3198829,1.4683315 2.8101616,1.1998117 3.4098361,1.0681226 3.5894136,1.0286872 3.876755,1.0273224 12,1.0273224 c 8.123245,0 8.410586,0.00136 8.590164,0.0408 0.383658,0.084252 0.790371,0.2591893 1.112284,0.4784216 0.09152,0.062329 0.274615,0.2218227 0.406871,0.3544293 0.431649,0.4327906 0.679994,0.889324 0.824368,1.5154418 l 0.04889,0.212 0.007,8.1967219 c 0.0048,5.645385 -1.97e-4,8.272682 -0.01612,8.440761 -0.06965,0.73535 -0.397049,1.404549 -0.934482,1.91008 -0.384682,0.361848 -0.847261,0.608357 -1.405096,0.74878 l -0.185793,0.04677 -8.371584,0.0036 c -4.6043719,0.002 -8.3863391,6.76e-4 -8.4043719,-0.0029 z M 20.338798,20.952867 c 0.322842,-0.129479 0.527974,-0.34477 0.623735,-0.654623 0.04235,-0.137018 0.04293,-0.250312 0.04293,-8.298244 0,-8.0479318 -5.86e-4,-8.1612262 -0.04293,-8.2982439 C 20.863901,3.3826142 20.63234,3.1477164 20.306011,3.0357745 20.189037,2.9956485 19.964859,2.9945355 12,2.9945355 c -7.9648595,0 -8.1890369,0.00111 -8.3060109,0.041239 C 3.3676599,3.1477164 3.1360985,3.3826142 3.0374672,3.7017561 2.9951217,3.8387738 2.9945355,3.9520682 2.9945355,12 c 0,8.047932 5.862e-4,8.161226 0.042932,8.298244 0.112159,0.362914 0.3960285,0.617102 0.7767405,0.695524 0.048087,0.0099 3.7562841,0.01659 8.240437,0.01485 l 8.153005,-0.0032 z"
     id="path7" />
  <path
     style="fill:#950113;stroke-width:0.0218579"
     d="M 3.7595628,20.954879 C 3.4682554,20.878736 3.2415077,20.688981 3.1081792,20.409767 l -0.080857,-0.16933 V 12 3.7595628 L 3.1089573,3.588595 C 3.2094171,3.3782022 3.3711287,3.2128834 3.5743181,3.1128536 3.7073789,3.047348 3.742035,3.0404757 4.0177992,3.0249119 c 0.3906504,-0.022048 15.5737508,-0.022048 15.9644018,0 0.275764,0.015564 0.31042,0.022436 0.443481,0.087942 0.203189,0.1000298 0.364901,0.2653486 0.465361,0.4757414 l 0.08163,0.1709678 V 12 20.240437 l -0.08163,0.170968 c -0.136159,0.285157 -0.373485,0.478521 -0.674357,0.549441 -0.123804,0.02918 -1.085104,0.03293 -8.227615,0.03211 -7.5376925,-8.73e-4 -8.0970892,-0.0035 -8.2295082,-0.03807 z m 3.6756728,-2.090064 c 0.7153915,-0.139872 1.2960151,-0.646391 1.5219286,-1.327687 0.082265,-0.24809 0.1233643,-0.55817 0.1036485,-0.781995 -0.080852,-0.917879 -0.6809257,-1.614785 -1.5744739,-1.828541 -0.2453978,-0.0587 -0.6680431,-0.04957 -0.9335983,0.02018 -0.710664,0.186654 -1.2354526,0.70598 -1.4421216,1.427109 -0.071192,0.248411 -0.0725,0.76995 -0.00257,1.025028 0.210039,0.766147 0.839383,1.34678 1.5986375,1.474904 0.1714183,0.02893 0.5590723,0.02414 0.7285501,-0.009 z M 17.482544,18.83196 c 0.337362,-0.09723 0.589553,-0.242762 0.852007,-0.491667 0.265379,-0.251678 0.457073,-0.575428 0.557401,-0.941386 0.06993,-0.255078 0.06862,-0.776617 -0.0026,-1.025028 -0.206809,-0.721618 -0.73059,-1.240274 -1.440897,-1.426799 -0.266827,-0.07007 -0.688899,-0.07932 -0.934823,-0.02049 -0.511562,0.122377 -0.949641,0.418255 -1.236425,0.835082 -0.254583,0.370023 -0.383274,0.905983 -0.327562,1.36419 0.105573,0.868281 0.734378,1.552885 1.596774,1.738467 0.211934,0.04561 0.727384,0.02778 0.936096,-0.03237 z m -4.968883,-4.884555 c 0.581803,-0.163495 1.042723,-0.548552 1.299461,-1.085582 0.145647,-0.304658 0.183069,-0.480824 0.183069,-0.861823 0,-0.268352 -0.0086,-0.359611 -0.0475,-0.502732 -0.1628,-0.599352 -0.588775,-1.099064 -1.139841,-1.337152 C 12.512179,10.031938 12.398272,10.010929 12,10.010929 c -0.27921,0 -0.39274,0.0088 -0.502732,0.03916 -0.588328,0.162142 -1.051642,0.546859 -1.31039,1.088092 -0.145647,0.304658 -0.183069,0.480824 -0.183069,0.861823 0,0.380999 0.03742,0.557165 0.183069,0.861823 0.268255,0.56112 0.776556,0.967232 1.383532,1.105385 0.187026,0.04257 0.764437,0.03045 0.943251,-0.0198 z M 7.6164079,8.9850929 C 7.9774227,8.8771779 8.3251277,8.6589132 8.557297,8.3944689 9.272861,7.5794304 9.223369,6.3494785 8.4450601,5.6052164 8.2583604,5.4266837 8.1342601,5.3415132 7.9027388,5.2330186 7.6278223,5.1041884 7.3874953,5.0529481 7.0601093,5.0533609 6.7432973,5.0537603 6.5532332,5.089406 6.2851556,5.1987001 5.7136772,5.4316894 5.2887941,5.9161073 5.1106189,6.5378136 c -0.067064,0.234005 -0.072081,0.7692843 -0.00939,1.0013239 0.2038029,0.7542863 0.7842645,1.3188118 1.5217174,1.4799397 0.2785369,0.060858 0.7275596,0.045498 0.9934571,-0.033984 z m 9.7497561,0.03383 C 18.098456,8.8677781 18.6886,8.304595 18.891952,7.5628415 c 0.04059,-0.1480489 0.04766,-0.228492 0.0461,-0.5245901 -0.0017,-0.3135443 -0.0079,-0.3696195 -0.06031,-0.542002 -0.21983,-0.7229239 -0.783882,-1.2487333 -1.51126,-1.4087952 -0.234973,-0.051707 -0.65434,-0.045573 -0.893847,0.013074 -0.211472,0.051782 -0.497597,0.1767964 -0.659349,0.2880847 -0.156278,0.1075222 -0.397052,0.3432236 -0.504671,0.4940376 -0.132717,0.1859862 -0.26069,0.4678579 -0.317479,0.6992734 -0.0605,0.246543 -0.06599,0.6854105 -0.01137,0.9096022 0.193617,0.7947921 0.773788,1.3622678 1.569157,1.5348208 0.204793,0.044429 0.582649,0.040997 0.817246,-0.00742 z"
     id="path8" />
  <path
     style="fill:#950113;stroke-width:0.0218579"
     d="M 3.4267958,22.918466 C 3.0328185,22.835395 2.6866084,22.688587 2.3364355,22.456107 2.0901067,22.292569 1.7215668,21.930078 1.556121,21.6886 1.4046017,21.467449 1.2189355,21.077569 1.1475302,20.830601 1.0200922,20.389835 1.0275914,20.946557 1.0274513,11.91621 1.0273226,3.6268317 1.0273923,3.6135617 1.0720002,3.4353357 1.2191322,2.8474866 1.3941425,2.4918538 1.7336797,2.0907581 2.1468465,1.6026836 2.6535875,1.2841678 3.3114754,1.0990227 l 0.1748634,-0.049211 8.1296772,-0.00647 c 4.509915,-0.00359 8.324978,0.00217 8.568306,0.012933 0.422289,0.018683 0.447505,0.022392 0.67692,0.099557 0.604694,0.2033933 1.019893,0.479891 1.406579,0.936696 0.337945,0.3992266 0.513263,0.7558252 0.660179,1.3428105 0.04461,0.178226 0.04468,0.191496 0.04455,8.4808748 -1.4e-4,9.030346 0.0074,8.473624 -0.120079,8.914391 -0.07141,0.246967 -0.257072,0.636848 -0.408591,0.857999 -0.06381,0.09313 -0.219289,0.273762 -0.345518,0.401412 -0.411108,0.415728 -0.887766,0.678096 -1.522281,0.837909 -0.120112,0.03025 -1.023166,0.03367 -8.546448,0.03229 -8.0805061,-0.0015 -8.4196635,-0.0031 -8.6028362,-0.04174 z M 20.407238,20.930088 c 0.316529,-0.14833 0.526831,-0.408209 0.57668,-0.712627 0.02911,-0.177783 0.02911,-16.2571388 0,-16.4349222 C 20.937772,3.5007379 20.747134,3.2454909 20.475951,3.1024205 L 20.31694,3.0185295 19.945355,3.0025739 c -0.485084,-0.020829 -15.4056256,-0.020829 -15.8907102,0 L 3.6830601,3.0185295 3.5240492,3.1024205 C 3.2528664,3.2454909 3.0622275,3.5007379 3.0160815,3.7825388 c -0.029113,0.1777834 -0.029113,16.2571392 0,16.4349222 0.060686,0.370594 0.4006243,0.713261 0.7681513,0.774317 0.06716,0.01116 3.6099703,0.0206 8.2781202,0.02206 l 8.160714,0.0026 z"
     id="path9" />
  <path
     style="fill:#44c298;stroke-width:0.0218579;fill-opacity:1"
     d="M 3.8571666,20.951586 C 3.5300398,20.914114 3.2797507,20.718705 3.1032603,20.362986 L 3.0382514,20.23196 V 12.000209 3.7684575 L 3.1190985,3.604952 C 3.2784984,3.2825814 3.5446106,3.0862981 3.8735421,3.0484774 c 0.2450116,-0.028172 16.0079039,-0.028172 16.2529159,0 0.330269,0.037974 0.594426,0.2322375 0.753323,0.5539993 l 0.08197,0.1659808 v 8.2317515 8.231751 l -0.06602,0.133068 c -0.172455,0.347584 -0.412633,0.538513 -0.736293,0.585311 -0.17022,0.02461 -16.087663,0.02583 -16.3022674,0.0012 z M 7.6502732,18.820472 C 7.987703,18.710447 8.2002933,18.584939 8.4453716,18.351068 8.8501519,17.964797 9.0713856,17.451294 9.0708732,16.899225 9.0699322,15.885473 8.3402238,15.034275 7.3516623,14.893781 7.132334,14.86261 6.766522,14.883689 6.5435795,14.940343 5.9925913,15.080361 5.4992192,15.481428 5.2400455,16 c -0.12439,0.248888 -0.1732933,0.459714 -0.1850612,0.797814 -0.016519,0.47461 0.055878,0.774374 0.2741372,1.135075 0.2290311,0.378502 0.6108448,0.704861 0.9888663,0.845241 0.2709106,0.100603 0.3899009,0.117508 0.7749084,0.110086 0.335633,-0.0065 0.3895604,-0.01302 0.557377,-0.06774 z m 9.9016398,-5.09e-4 c 0.653345,-0.208765 1.164797,-0.743881 1.34915,-1.411575 0.03083,-0.111669 0.03858,-0.22165 0.03761,-0.534071 -0.0012,-0.382281 -0.0032,-0.399334 -0.07064,-0.601093 -0.09564,-0.286059 -0.246378,-0.542457 -0.44008,-0.748565 -0.374948,-0.398962 -0.826332,-0.609457 -1.375898,-0.641626 -0.405074,-0.02371 -0.764477,0.05921 -1.107633,0.255548 -0.36157,0.206875 -0.623878,0.483018 -0.797497,0.839561 -0.580512,1.192133 0.05809,2.561751 1.344884,2.884408 0.09892,0.0248 0.222466,0.03091 0.502733,0.02483 0.330927,-0.0072 0.391913,-0.01455 0.557377,-0.06742 z m -5.152256,-4.842271 c 0.415985,-0.06015 0.913963,-0.366787 1.193523,-0.73493 0.135947,-0.179023 0.313164,-0.532013 0.366043,-0.729101 0.05508,-0.205285 0.05503,-0.827635 -7.5e-5,-1.027322 -0.151523,-0.549065 -0.553811,-1.043139 -1.056259,-1.297256 -0.276776,-0.139981 -0.426881,-0.173331 -0.826386,-0.183603 -0.422356,-0.010859 -0.575911,0.01195 -0.850728,0.126354 -0.565257,0.235317 -1.021251,0.756748 -1.184521,1.354505 -0.054953,0.20119 -0.055306,0.823921 -5.82e-4,1.027322 0.05872,0.218271 0.236137,0.560047 0.392827,0.756756 0.249998,0.313849 0.664059,0.585837 1.041911,0.684409 0.185924,0.0485 0.664977,0.06035 0.924247,0.02287 z M 7.5705827,9.0077996 C 8.4408428,8.7646457 9.0225089,8.0444881 9.0642723,7.1584699 9.1098584,6.191353 8.5005897,5.3504507 7.5737705,5.1013047 7.3403692,5.0385621 6.7947185,5.0315181 6.5827733,5.0885115 5.8522055,5.2849661 5.3389301,5.7783596 5.1115649,6.5027322 c -0.046417,0.1478805 -0.051389,0.2035345 -0.050778,0.5683061 6.42e-4,0.3831499 0.00381,0.4133114 0.060273,0.5747175 0.2535581,0.724767 0.7919891,1.2243924 1.4909623,1.3835061 0.1805357,0.041097 0.7829309,0.027609 0.9585605,-0.021462 z m 9.8019233,0.017956 c 0.707414,-0.1442459 1.288602,-0.6844225 1.516201,-1.4092107 0.04595,-0.1463416 0.05118,-0.2043038 0.05118,-0.5673646 0,-0.3875136 -0.0026,-0.4121171 -0.06274,-0.5901639 C 18.641545,5.76128 18.131894,5.279365 17.429848,5.0904765 c -0.222585,-0.059888 -0.7606,-0.053962 -1.003618,0.011053 -0.552015,0.1476818 -1.029448,0.5359893 -1.279321,1.0405023 -0.16347,0.3300577 -0.20177,0.4998383 -0.204635,0.9071484 -0.0026,0.3650352 0.01404,0.4670427 0.119794,0.7357305 0.196172,0.4984193 0.607795,0.9242026 1.085871,1.1232265 0.282116,0.1174452 0.444569,0.1494389 0.765551,0.1507685 0.182777,7.572e-4 0.353028,-0.011538 0.459016,-0.03315 z"
     id="path10" />
  <path
     style="fill:#44c298;fill-opacity:1;stroke-width:0.0218579"
     d="M 16.568306,9.006751 C 15.79246,8.8425976 15.200189,8.2747228 15.012244,7.5147836 c -0.06021,-0.2434643 -0.06485,-0.6616026 -0.0099,-0.8886291 0.08527,-0.3520413 0.247101,-0.652315 0.493166,-0.915082 1.043228,-1.1140402 2.842634,-0.7203514 3.336322,0.7299481 0.07681,0.2256444 0.104673,0.4473592 0.09088,0.7231568 -0.0426,0.8515616 -0.619403,1.5656963 -1.462063,1.8101647 -0.206052,0.059779 -0.681424,0.077043 -0.89238,0.032409 z"
     id="path11" />
  <path
     style="fill:#44c298;fill-opacity:1;stroke-width:0.0218579"
     d="m 11.629917,13.955625 c -0.411923,-0.08621 -0.764709,-0.282706 -1.063929,-0.592584 -0.248233,-0.257074 -0.398302,-0.524086 -0.494037,-0.879024 -0.06854,-0.254094 -0.06854,-0.71394 0,-0.968035 0.104353,-0.386888 0.275555,-0.672705 0.569478,-0.950726 0.211001,-0.199586 0.3473,-0.289581 0.608439,-0.401737 0.26511,-0.113861 0.483595,-0.149224 0.835605,-0.135245 0.342619,0.01361 0.478038,0.04555 0.756057,0.178353 0.557498,0.266302 0.940446,0.736789 1.094979,1.345286 0.05779,0.227547 0.05779,0.668627 0,0.896174 -0.179764,0.707846 -0.668075,1.226794 -1.368203,1.454046 -0.162843,0.05286 -0.22629,0.06114 -0.513661,0.06704 -0.180328,0.0037 -0.371456,-0.0024 -0.424728,-0.01354 z"
     id="path12" />
  <path
     style="fill:#44c298;fill-opacity:1;stroke-width:0.0218579"
     d="M 6.6666667,9.0056481 C 6.2499285,8.9123552 5.955148,8.7482286 5.6502732,8.4397456 5.2563425,8.0411523 5.071688,7.5972647 5.0712034,7.0477303 5.0706993,6.4761291 5.3359236,5.9077767 5.7740684,5.5415522 6.0280316,5.3292764 6.2563629,5.2128296 6.5957999,5.1224772 6.8129414,5.0646778 7.2383746,5.0582754 7.4674332,5.1093599 8.2203991,5.2772859 8.8132236,5.8649238 8.9976153,6.6261545 9.0526077,6.853181 9.0479683,7.2713193 8.9877558,7.5147836 8.809487,8.235598 8.2627215,8.7872111 7.5300546,8.9854087 7.3453508,9.035374 6.8511967,9.0469578 6.6666667,9.0056481 Z"
     id="path13" />
  <path
     style="fill:#44c298;fill-opacity:1;stroke-width:0.0218579"
     d="m 6.6691361,18.840554 c -0.7527935,-0.163316 -1.3216638,-0.69541 -1.5336629,-1.434513 -0.093819,-0.327085 -0.080203,-0.7975 0.032675,-1.128955 0.2532533,-0.74365 0.8882458,-1.262767 1.6624526,-1.359084 0.4466133,-0.05556 0.9564343,0.07145 1.3442623,0.334904 0.1451488,0.0986 0.3849567,0.334999 0.4933768,0.486364 0.1272588,0.177666 0.260875,0.462153 0.3175139,0.676031 0.067113,0.253427 0.067688,0.670971 0.0013,0.93989 -0.1838429,0.744642 -0.7919867,1.33165 -1.5380402,1.484589 -0.2053432,0.04209 -0.587661,0.04247 -0.7798729,7.74e-4 z"
     id="path14" />
  <path
     style="fill:#950113;fill-opacity:1;stroke-width:0.0218579"
     d="m 16.535519,18.839443 c -0.74322,-0.1649 -1.340614,-0.747261 -1.522568,-1.484252 -0.06639,-0.268919 -0.06582,-0.686463 0.0013,-0.93989 0.09492,-0.358446 0.293945,-0.695304 0.562552,-0.952161 0.261924,-0.250467 0.536386,-0.404824 0.880692,-0.495301 0.280265,-0.07365 0.691575,-0.07779 0.94671,-0.0095 0.462834,0.12383 0.811918,0.346803 1.089167,0.695692 0.312243,0.392926 0.454724,0.839644 0.429382,1.346239 -0.04219,0.843376 -0.60658,1.553777 -1.430108,1.800086 -0.246718,0.07379 -0.714644,0.09291 -0.957122,0.03911 z"
     id="path15" />
  <path
     style="fill:#950113;fill-opacity:1;stroke-width:0.0218579"
     d="M 16.487259,8.9741869 C 15.90064,8.8148881 15.440733,8.4474142 15.18596,7.9344262 14.801622,7.1605574 14.94223,6.2932721 15.551203,5.6815619 c 0.41771,-0.4195869 0.92433,-0.6214746 1.487048,-0.5925879 0.514058,0.026389 0.943079,0.2177711 1.301162,0.5804363 0.263639,0.2670136 0.461097,0.6290677 0.536116,0.9830154 0.04,0.1886988 0.03947,0.6072539 -9.94e-4,0.7982622 -0.124715,0.588652 -0.515075,1.0945729 -1.053916,1.3659149 -0.29403,0.1480636 -0.443414,0.182778 -0.826083,0.1919683 -0.296805,0.00713 -0.373569,0.00193 -0.507277,-0.034384 z"
     id="path16" />
  <path
     style="fill:#950113;fill-opacity:1;stroke-width:0.0218579"
     d="m 11.453552,13.894678 c -0.455745,-0.152908 -0.840943,-0.43558 -1.09321,-0.802238 -0.09477,-0.13775 -0.228156,-0.428156 -0.275867,-0.600637 -0.05704,-0.206188 -0.05648,-0.784123 9.45e-4,-0.983606 0.05132,-0.178257 0.183921,-0.468371 0.273783,-0.598982 0.252517,-0.36702 0.644023,-0.65743 1.08342,-0.803653 0.139244,-0.04634 0.190358,-0.05084 0.568306,-0.05 0.374477,8.26e-4 0.429028,0.0058 0.554954,0.05044 0.649505,0.230314 1.108688,0.688126 1.318704,1.314767 0.06717,0.200428 0.06962,0.220575 0.0703,0.579235 7.09e-4,0.370797 5.45e-4,0.372055 -0.0773,0.593617 -0.1057,0.300851 -0.2394,0.527336 -0.433252,0.733919 -0.247095,0.263323 -0.505168,0.429928 -0.865105,0.55849 -0.136931,0.04891 -0.194339,0.05551 -0.546448,0.06282 -0.385151,0.008 -0.397358,0.0069 -0.579235,-0.05417 z"
     id="path17" />
  <path
     style="fill:#950113;fill-opacity:1;stroke-width:0.0218579"
     d="M 6.5682208,18.801168 C 6.1940475,18.69843 5.8848506,18.510802 5.6157691,18.223198 5.3727939,17.963497 5.1931986,17.628274 5.1252625,17.307643 5.0845799,17.115638 5.0841175,16.716394 5.1243342,16.5062 5.289175,15.644655 6.0556405,14.977274 6.9398907,14.925349 c 0.2630416,-0.01545 0.4706503,0.01385 0.7465747,0.105342 0.2660045,0.08821 0.4842542,0.218367 0.6929551,0.41327 0.2085572,0.19477 0.3348516,0.368964 0.461792,0.636938 0.1482157,0.312886 0.1743628,0.434085 0.1735294,0.804347 -8.602e-4,0.382092 -0.032875,0.528112 -0.1851664,0.844545 -0.2645088,0.549602 -0.7420988,0.941568 -1.3144304,1.078775 -0.2609792,0.06257 -0.7047431,0.0591 -0.9469243,-0.0074 z"
     id="path18" />
  <path
     style="fill:#44c298;fill-opacity:1;stroke-width:0.0218579"
     d="M 16.387892,8.9301775 C 16.282653,8.8938 16.144948,8.8379388 16.081881,8.8060415 15.122916,8.3210289 14.719725,7.1696851 15.179601,6.2295082 15.427033,5.7236533 15.9314,5.2999754 16.459016,5.1547739 c 0.202664,-0.055773 0.758114,-0.055511 0.972678,4.597e-4 0.622364,0.1623487 1.144132,0.6554644 1.374397,1.2989235 0.06707,0.187413 0.06823,0.1975207 0.06823,0.5950232 0,0.4006446 -6.63e-4,0.4062855 -0.07195,0.6120219 -0.106682,0.3078723 -0.242817,0.5224214 -0.485423,0.7650273 -0.239792,0.2397915 -0.465109,0.384482 -0.758039,0.4867843 -0.182553,0.063754 -0.213654,0.06775 -0.586223,0.075315 -0.3908,0.00794 -0.394729,0.00754 -0.584786,-0.058152 z"
     id="path20" />
  <path
     style="fill:#44c298;fill-opacity:1;stroke-width:0.0218579"
     d="m 16.466045,18.808924 c -1.001276,-0.262452 -1.644076,-1.261728 -1.462404,-2.273405 0.107782,-0.600202 0.569171,-1.186094 1.13669,-1.44342 0.427006,-0.193614 0.976049,-0.22396 1.405569,-0.07769 0.63166,0.21511 1.074692,0.663636 1.286577,1.302528 0.05763,0.173782 0.06168,0.209813 0.06266,0.557377 0.0012,0.429439 -0.03039,0.578565 -0.190874,0.900969 -0.265353,0.533081 -0.805555,0.945517 -1.370441,1.04631 -0.245391,0.04379 -0.676396,0.03749 -0.867774,-0.01267 z"
     id="path22" />
  <path
     style="fill:#950113;fill-opacity:1;stroke-width:0.0218579"
     d="M 6.8278871,18.829286 C 6.0591546,18.754759 5.3499463,18.13362 5.1554634,17.364545 5.0920005,17.113583 5.1047891,16.561376 5.1794719,16.327869 5.495164,15.340807 6.53015,14.745886 7.5025281,14.992549 c 0.6026496,0.152875 1.031595,0.503853 1.31556,1.076436 0.157654,0.317892 0.1761978,0.403734 0.1763309,0.816261 1.025e-4,0.31742 -0.00602,0.380195 -0.051067,0.523649 -0.08924,0.284184 -0.2613036,0.588473 -0.4593873,0.81241 -0.1934774,0.21873 -0.5416122,0.439656 -0.8532645,0.541482 -0.1106975,0.03617 -0.5644242,0.100186 -0.6143069,0.08667 -0.00601,-0.0016 -0.090839,-0.01071 -0.1885063,-0.02018 z"
     id="path23" />
  <path
     style="fill:#950113;fill-opacity:1;stroke-width:0.0218579"
     d="M 3.7382348,20.915853 C 3.6724061,20.898123 3.5779814,20.859844 3.5284022,20.830788 3.3975093,20.75408 3.2129768,20.54469 3.1195014,20.366806 l -0.08125,-0.15462 3.074e-4,-8.215382 3.075e-4,-8.2153832 0.088738,-0.1639345 C 3.2854584,3.3258675 3.5280363,3.1301801 3.8032787,3.0724204 3.9777463,3.0358083 20.024685,3.0361625 20.196721,3.0727823 c 0.283748,0.060399 0.509193,0.2412893 0.671856,0.5390773 l 0.09262,0.1695612 2.76e-4,8.2137382 2.76e-4,8.213738 -0.06333,0.12506 c -0.13886,0.274212 -0.329834,0.468099 -0.548691,0.557065 l -0.120219,0.04887 -8.185792,0.0041 c -7.1543602,0.0036 -8.2008736,3.8e-5 -8.3054812,-0.02814 z m 3.9445191,-2.093658 c 0.6509134,-0.224936 1.1396544,-0.734371 1.3280293,-1.384261 0.042588,-0.146929 0.049326,-0.220932 0.049326,-0.541759 0,-0.320867 -0.00674,-0.394821 -0.049344,-0.541825 C 8.8091307,15.6587 8.3007427,15.142083 7.616701,14.93772 7.4227713,14.87978 6.982897,14.8582 6.7349088,14.89447 c -0.6534695,0.09555 -1.2328411,0.530898 -1.5223469,1.143913 -0.1306568,0.27666 -0.1517574,0.394126 -0.1521245,0.846867 -3.734e-4,0.460537 0.019907,0.568563 0.163158,0.869058 0.1085735,0.227753 0.1881423,0.343284 0.3670358,0.53292 0.2666971,0.282713 0.5765648,0.472391 0.9230302,0.565009 0.1423368,0.03805 0.2186485,0.04293 0.579235,0.03705 0.3871775,-0.0063 0.4271211,-0.01085 0.5898577,-0.06709 z m 9.8611631,0.01162 c 0.555201,-0.191784 0.969475,-0.546322 1.216944,-1.041467 0.149476,-0.299078 0.172123,-0.399146 0.184364,-0.814617 0.01239,-0.420552 -0.0047,-0.552364 -0.105264,-0.813989 -0.228051,-0.593029 -0.744071,-1.05719 -1.364551,-1.227415 -0.145613,-0.03995 -0.235193,-0.04823 -0.535519,-0.04953 -0.313176,-0.0014 -0.383677,0.005 -0.535519,0.04843 -0.893162,0.255326 -1.47541,1.029181 -1.47541,1.960941 0,0.920321 0.583969,1.692967 1.477767,1.955224 0.133561,0.03919 0.198991,0.04333 0.576878,0.03647 0.364299,-0.0066 0.445711,-0.01446 0.56031,-0.05405 z M 12.5286,13.958054 c 0.412228,-0.10543 0.827008,-0.382553 1.082261,-0.723081 0.117816,-0.157176 0.27992,-0.474329 0.340749,-0.666667 C 13.994491,12.432718 14,12.368024 14,12 c 0,-0.37464 -0.005,-0.431275 -0.05124,-0.578465 -0.09831,-0.313089 -0.255167,-0.575589 -0.495118,-0.828599 -0.186046,-0.196171 -0.359157,-0.322284 -0.602989,-0.439283 -0.270354,-0.129725 -0.462474,-0.1598182 -0.946905,-0.148322 -0.359465,0.0085 -0.410322,0.01468 -0.557385,0.06744 -0.612814,0.219843 -1.09816,0.722522 -1.290961,1.337063 -0.059835,0.190721 -0.084299,0.675515 -0.04776,0.946342 0.08571,0.635209 0.623603,1.290136 1.263736,1.5387 0.234203,0.09094 0.297823,0.100023 0.719651,0.102727 0.302486,0.0019 0.404754,-0.0056 0.537561,-0.03955 z M 7.6107814,9.0072431 C 8.2125233,8.8366431 8.7434409,8.3484673 8.9469489,7.7786448 9.1215447,7.289776 9.1115263,6.7195386 8.9202702,6.2601204 8.6844472,5.6936485 8.1531698,5.2325467 7.571419,5.0894373 7.3519137,5.0354394 6.7314061,5.0351956 6.5355191,5.0890303 6.3320566,5.1449469 5.9815005,5.3221786 5.8032787,5.459231 5.4599119,5.7232802 5.1617462,6.1926393 5.0737431,6.6076332 c -0.0342,0.1612741 -0.030877,0.7730835 0.00501,0.9224214 0.138415,0.5760033 0.6025116,1.1350073 1.1474393,1.382089 0.2845702,0.1290304 0.4079215,0.1491038 0.8557759,0.1392645 0.2826256,-0.00621 0.441838,-0.019507 0.5288142,-0.044165 z m 9.9302026,-0.011893 c 0.598861,-0.1937724 1.057563,-0.6241814 1.299932,-1.219751 0.09178,-0.225534 0.109904,-0.3465336 0.109904,-0.7338308 0,-0.3876711 -0.01897,-0.4974846 -0.131686,-0.7623662 C 18.621912,5.8159366 18.289577,5.4605471 17.846995,5.2398225 17.570929,5.1021431 17.404007,5.0589823 17.092896,5.0448359 16.44945,5.0155781 15.984056,5.1784441 15.55894,5.581649 15.337526,5.7916516 15.19588,5.9926042 15.080642,6.2602125 14.961447,6.537009 14.940603,6.6589919 14.940224,7.0819672 c -2.95e-4,0.3292485 0.0055,0.3901552 0.05085,0.5345777 0.170259,0.5421882 0.558366,1.0086859 1.041713,1.2521178 0.108412,0.054601 0.408707,0.1585336 0.513661,0.177779 0.03005,0.00551 0.231694,0.00741 0.448088,0.00422 0.339012,-0.005 0.41461,-0.012652 0.546448,-0.05531 z"
     id="path24" />
  <path
     style="fill:#44c298;fill-opacity:1.0;stroke-width:0.0218579"
     d="M 6.822032,18.829605 C 6.385395,18.783884 5.9996033,18.588579 5.6612022,18.24194 5.4452376,18.020718 5.2936532,17.781046 5.1946427,17.504256 c -0.067942,-0.189936 -0.06896,-0.198747 -0.06896,-0.597152 0,-0.362889 0.00525,-0.421189 0.051214,-0.568306 0.3102563,-0.993124 1.3484782,-1.594124 2.3256312,-1.346249 0.2291333,0.05813 0.4828581,0.167405 0.6405003,0.275865 0.2948199,0.202842 0.5641598,0.536313 0.7200396,0.891484 0.1205178,0.2746 0.1486419,0.440618 0.135838,0.801851 -0.012526,0.353388 -0.050489,0.502435 -0.2032041,0.797814 -0.2667581,0.515957 -0.6711397,0.85514 -1.2150612,1.019155 -0.092044,0.02775 -0.4818094,0.07625 -0.5642473,0.07021 -0.018033,-0.0013 -0.1054954,-0.01002 -0.1943614,-0.01932 z"
     id="path25" />
  <path
     style="fill:#950113;fill-opacity:1"
     d="m 12.765027,2.2513661 c -0.0073,0.087432 -0.01821,0.1746364 -0.02186,0.2622951 -0.0158,0.3791894 0.05979,0.5418897 -0.174863,0.8743169 -0.04791,0.067868 -0.08946,0.1432111 -0.153005,0.1967214 -0.227682,0.1917317 -1.030851,0.471236 -1.311476,0.284153 -0.249198,-0.1661319 -0.206637,-0.7492479 -0.174863,-0.9398908 0.01397,-0.083812 0.07675,-0.1533047 0.131147,-0.2185792 0.298456,-0.3581467 0.733599,-0.3715847 1.15847,-0.3715847 0.07286,0 0.147283,-0.01501 0.218579,0 0.190186,0.040039 0.373071,0.1778349 0.459017,0.3497268"
     id="path26" />
  <path
     style="fill:#950113;fill-opacity:1"
     d="M 13.333333,3.8251366 12.568306,2.2076503"
     id="path27" />
  <path
     style="fill:#950113;fill-opacity:1"
     d="m 12.349727,2.6885246 c 0.01047,0.2813423 -0.10621,0.6900146 0.04372,0.9398907 0.05305,0.088418 0.07254,0.03627 0.131147,0.065574 0.0092,0.00461 0.01264,0.01725 0.02186,0.021858 0.01303,0.00652 0.03159,-0.00808 0.04372,0 0.01715,0.011431 0.02528,0.0345 0.04372,0.043716 0.08,0.040001 0.493947,0.021858 0.590164,0.021858 0.25415,0 0.511228,0.011035 0.765027,0 0.263475,-0.011455 0.522201,-0.032445 0.786885,-0.021858 0.481633,0.019265 0.947646,0.161584 1.420765,0.2404372 0.68637,0.1143949 1.380103,0.1940737 2.054645,0.3715847 0.451373,0.1187823 0.0056,0.00996 0.393443,0.1311475 0.05735,0.017921 0.118282,0.023508 0.174863,0.043716 0.339359,0.1211997 0.745588,0.3691191 0.852459,0.7431694 0.05184,0.1814378 0.04484,0.4035501 0.06557,0.5901639 0.03841,0.3457162 -2.88e-4,-0.00163 0.06557,0.3715847 0.03602,0.2041318 0.06026,0.4097745 0.109289,0.6120219 0.0408,0.1683105 0.08426,0.3360149 0.131148,0.5027322 0.01871,0.066539 0.04956,0.1294802 0.06557,0.1967213 0.07847,0.3295941 0.112788,0.6703252 0.153005,1.0054645 0.01142,0.095149 0.03418,0.1887966 0.04372,0.284153 0.04485,0.4484974 0.05151,0.9051735 0.06557,1.3551914 0.0066,0.21119 -0.0075,0.422721 0,0.63388 0.01849,0.517794 0.02186,1.033181 0.02186,1.551913 0,0.202457 0.01123,0.409855 0,0.612021 -0.0037,0.06588 -0.01856,0.130827 -0.02186,0.196722 -0.004,0.08005 0.0073,0.16062 0,0.240437 -0.0074,0.08113 -0.03318,0.159662 -0.04372,0.240437 -0.04156,0.318627 -0.04756,0.642766 -0.08743,0.961749 -0.02835,0.226778 -0.07542,0.451783 -0.109289,0.677595 -0.04561,0.304091 -0.06577,0.613399 -0.10929,0.918033 -0.02391,0.167361 -0.07337,0.333979 -0.08743,0.502732 -0.01946,0.233561 -0.04887,0.465552 -0.06557,0.699454 -0.01194,0.167151 0.007,0.3353 0,0.502732 -0.0024,0.05869 -0.01819,0.116237 -0.02186,0.174864 -0.0064,0.101805 0.01677,0.205395 0,0.306011 -0.0076,0.04545 -0.03614,0.08569 -0.04372,0.131147 -0.0072,0.04312 0.0036,0.08758 0,0.131148 -0.004,0.04794 -0.03326,0.188158 -0.04372,0.240437 -0.0431,0.215502 -0.01256,0.276013 -0.196721,0.437158 -0.106313,0.09302 -0.07562,0.05431 -0.21858,0.10929 -0.05179,0.01992 -0.100043,0.04902 -0.153005,0.06557 -0.384343,0.120107 -0.858396,0.06557 -1.245902,0.06557 -0.450859,0 -0.904607,0.01454 -1.355191,0 -0.10221,-0.0033 -0.204007,-0.01457 -0.306011,-0.02186 -0.138434,-0.0073 -0.276723,-0.01821 -0.415301,-0.02186 -0.801476,-0.02109 -1.603006,0.0235 -2.404371,-0.02186 -0.379592,-0.02149 -0.755316,-0.07684 -1.136612,-0.08743 -0.262194,-0.0073 -0.524697,0.0075 -0.786885,0 -0.843431,-0.0241 0.08667,-0.01847 -0.721312,-0.04372 -0.218472,-0.0068 -0.437158,0 -0.655738,0 -0.4305593,0 -0.8597763,-0.0059 -1.2896171,-0.02186 -0.1898648,-0.007 -0.3784628,-0.03612 -0.568306,-0.04372 -0.1528832,-0.0061 -0.3062018,0.0076 -0.4590164,0 -0.4670308,-0.02335 -0.9335916,-0.02978 -1.3989071,-0.06557 -0.2324296,-0.01788 -0.4672036,-0.02585 -0.6994535,-0.04372 -0.1203291,-0.0093 -0.253059,-3.08e-4 -0.3715847,-0.02186 -0.045337,-0.0082 -0.085962,-0.03468 -0.1311476,-0.04372 -0.086809,-0.01736 -0.225168,0.0048 -0.3060109,-0.04372 -0.01397,-0.0084 -0.00882,-0.03394 -0.021858,-0.04372 -0.018432,-0.01382 -0.049282,-0.0056 -0.065574,-0.02186 -0.068009,-0.06801 -0.061649,-0.200358 -0.087432,-0.284153 -0.018307,-0.0595 -0.048143,-0.115102 -0.065574,-0.174863 -0.050469,-0.173035 -0.077385,-0.35255 -0.1311476,-0.52459 -0.1001591,-0.320509 -0.071946,-0.06009 -0.1530055,-0.546448 -0.00838,-0.05031 0.00391,-0.102154 0,-0.153006 -0.028509,-0.370614 -0.017705,0.132025 -0.043716,-0.284153 -0.011695,-0.187122 0,-0.380783 0,-0.568306 0,-0.312366 -0.01248,-0.627887 0,-0.939891 0.011088,-0.277191 0.054908,-0.553291 0.065574,-0.830601 0.025976,-0.675373 0,-1.356741 0,-2.032787 0,-0.574374 0.020499,-1.152795 0,-1.726775 -0.010561,-0.295702 -0.042224,-0.544286 -0.087432,-0.830602 -0.018323,-0.116045 -0.035346,-0.2325425 -0.043716,-0.3497267 -0.00363,-0.050872 0.00633,-0.1023975 0,-0.1530055 C 4.2976791,9.5945475 4.2733383,9.5307403 4.2622951,9.4644809 4.228371,9.2609366 4.2054598,9.0564349 4.1748634,8.852459 4.1195207,8.4835078 4.0452031,8.1112285 4.0218579,7.7377049 c -0.00727,-0.1163486 0.00647,-0.2333307 0,-0.3497268 C 4.0025827,7.0410245 3.9523835,6.6594362 4.0437158,6.3169399 4.0757956,6.1966409 4.1377273,6.0860485 4.1748634,5.9672131 4.2718845,5.6567456 4.1469642,5.8731455 4.3715847,5.442623 4.4005766,5.3870551 4.4469816,5.3423395 4.4808743,5.2896175 4.5126392,5.2402055 4.5330612,5.1836051 4.568306,5.136612 4.7782942,4.8566277 5.1527727,4.716084 5.4863388,4.6775956 c 0.3077386,-0.035508 0.6308618,-0.031222 0.9398907,-0.021858 1.1445471,0.034683 2.2898181,0.174108 3.431694,0.021858 0.1092896,-0.014572 0.2195955,-0.022894 0.3278685,-0.043716 0.424727,-0.081678 1.083724,-0.3964541 1.311476,-0.7868853 0.07544,-0.1293276 0.08265,-0.2732033 0.109289,-0.4153005 0.01107,-0.059053 0.03327,-0.1156959 0.04372,-0.1748634 0.06973,-0.3951141 0.01694,-0.7729042 -0.196721,-1.1147541 -0.01092,-0.017475 -0.0345,-0.025284 -0.04372,-0.043716 -0.0065,-0.013034 0.0087,-0.032058 0,-0.043716 -0.01576,-0.021016 -0.04981,-0.0227 -0.06557,-0.043716 -0.0087,-0.011658 0.0087,-0.032058 0,-0.043716 C 11.32062,1.9356901 11.206586,1.8520027 11.169399,1.8360656 11.128835,1.8186811 10.979025,1.796689 10.95082,1.7923497 10.60218,1.7387128 10.253823,1.726776 9.9016393,1.726776 c -0.4881602,0 -0.9763205,0 -1.4644808,0 -1.0927383,0 -2.1916691,0.039774 -3.2786886,0.1530054 -0.2185792,0.021858 -0.4371584,0.043716 -0.6557377,0.065574 -0.094718,0.014572 -0.1890036,0.032298 -0.284153,0.043716 -0.08711,0.010453 -0.1759755,0.00616 -0.262295,0.021858 -0.1270253,0.023096 -0.2499985,0.065866 -0.3715847,0.1092896 -0.3571801,0.1275643 0.021002,0.00238 -0.2622951,0.1311475 -0.04195,0.019068 -0.090694,0.02165 -0.1311476,0.043716 -0.040956,0.02234 -0.072464,0.05879 -0.1092896,0.087432 C 2.9362928,2.495816 2.7748725,2.6021767 2.6448087,2.7322404 2.5991165,2.7779326 2.5374955,2.8614116 2.4918033,2.9071038 2.4262295,2.9726776 2.3520159,3.0306243 2.295082,3.1038251 2.2106826,3.2123386 2.1493625,3.3369763 2.0765027,3.4535519 2.0539862,3.4895784 2.025616,3.5229768 2.010929,3.5628415 1.7940077,4.1516277 1.7923497,4.759062 1.7923497,5.3770492 c 0,0.5090145 0.016409,1.0213898 0,1.5300546 -0.00916,0.2840167 -0.033188,0.5682097 -0.043716,0.852459 -0.02095,0.5656554 0,1.1390023 0,1.7049181 0,0.4504419 -0.018001,0.9051721 0,1.3551911 0.034218,0.855449 0.00877,-0.257347 0.043716,0.546448 0.00665,0.152861 -0.00728,0.306184 0,0.459017 0.014268,0.299636 0.070812,0.597025 0.087432,0.896174 0.00727,0.130946 -0.00818,0.262551 0,0.393443 0.00321,0.05142 0.018431,0.1016 0.021858,0.153006 0.020187,0.302806 0,0.614545 0,0.918032 0,0.531876 0,1.063753 0,1.595629 0,0.230546 -0.019128,0.469919 0,0.699453 0.022342,0.268108 0.070643,0.561981 0.087432,0.830601 0.020258,0.324132 0.040831,0.664131 0.1092897,0.983607 0.00966,0.04506 0.033354,0.08625 0.043716,0.131148 0.00929,0.04026 0.039268,0.296735 0.043716,0.327868 0.019662,0.137636 0.054035,0.276835 0.065574,0.415301 0.00666,0.07987 -0.00726,0.16062 0,0.240437 0.016542,0.181959 0.049085,0.365073 0.065574,0.546448 0.013796,0.151751 -0.013796,0.307265 0,0.459017 0.00673,0.074 0.036322,0.144645 0.043716,0.218579 0.017304,0.173043 0.031515,0.35684 0.087432,0.52459 0.020608,0.06182 0.060965,0.115312 0.087432,0.174863 0.048784,0.109764 0.093601,0.211969 0.1967213,0.284153 0.2974287,0.2082 0.6541499,0.271659 1.0054645,0.327869 0.1892569,0.03028 0.380364,0.04984 0.568306,0.08743 0.1629422,0.03259 0.3140049,0.06889 0.4808743,0.08743 0.20392,0.02266 0.4075004,0.04921 0.6120219,0.06557 0.050839,0.0041 0.102451,-0.0067 0.1530055,0 0.059555,0.0079 0.1155991,0.03384 0.1748634,0.04372 0.049473,0.0082 0.45283,0.04255 0.4808743,0.04372 0.3264756,0.0136 0.6567594,0 0.9836065,0 0.312097,0 0.6281432,0.01355 0.9398907,0 0.2409212,-0.01047 0.4803741,-0.05553 0.7213115,-0.06557 0.1965508,-0.0082 0.393568,0.007 0.590164,0 0.6420087,-0.02293 -0.020053,-0.01931 0.5901637,-0.04372 0.261134,-0.01045 0.525519,0 0.786885,0 0.174864,0 0.349907,-0.0079 0.52459,0 0.151894,0.0069 0.307123,0.03681 0.459017,0.04372 0.378247,0.01719 0.759624,0.02033 1.136612,0.06557 0.256294,0.03076 0.506244,0.07306 0.765027,0.08743 0.584441,0.03247 1.16355,0.04372 1.748634,0.04372 0.447352,0 0.888596,-0.0042 1.333333,-0.06557 0.08471,-0.01168 0.3247,-0.06025 0.415301,-0.08743 0.03758,-0.01127 0.07122,-0.0342 0.109289,-0.04372 0.100401,-0.0251 0.229861,0.03267 0.327869,0 0.0098,-0.0033 0.01175,-0.01984 0.02186,-0.02186 0.06869,-0.01374 0.169289,0 0.240437,0 0.235106,0 0.541801,0.0279 0.765028,0 0.238599,-0.02982 0.483206,-0.04775 0.721311,-0.08743 0.312137,-0.05202 0.615617,-0.179818 0.918033,-0.262295 0.373762,-0.06229 -0.09053,0.02469 0.240437,-0.06557 0.04276,-0.01166 0.09,-0.0054 0.131148,-0.02186 0.03382,-0.01353 0.05559,-0.04788 0.08743,-0.06557 0.132843,-0.0738 0.359017,-0.120438 0.459017,-0.240437 0.02086,-0.02503 0.02416,-0.06137 0.04372,-0.08743 0.02473,-0.03297 0.05829,-0.05829 0.08743,-0.08743 0.02914,-0.03643 0.06068,-0.07107 0.08743,-0.10929 0.267685,-0.382407 0.393531,-0.692641 0.480874,-1.15847 0.09533,-0.508452 0.0833,-1.059793 0.06557,-1.57377 -0.007,-0.204406 -0.03615,-0.407635 -0.04372,-0.612022 -0.0089,-0.239991 0.01142,-0.481436 0,-0.721312 -0.01146,-0.240595 -0.03325,-0.480565 -0.04372,-0.721311 -0.0035,-0.08007 0.0084,-0.160732 0,-0.240437 -0.02082,-0.197776 -0.0608,-0.393087 -0.08743,-0.590164 -0.02938,-0.217408 -0.02949,-0.439224 -0.06557,-0.655738 -0.03308,-0.198499 -0.09617,-0.391979 -0.131148,-0.590164 -0.04583,-0.259696 -0.04631,-0.526464 -0.08743,-0.786885 -0.01159,-0.07339 -0.03632,-0.144646 -0.04372,-0.21858 -0.0197,-0.197008 -0.01084,-0.413642 -0.02186,-0.612021 -0.01014,-0.182601 -0.05416,-0.363909 -0.06557,-0.546448 -0.01487,-0.237893 0,-0.482947 0,-0.721312 0,-0.429872 0,-0.859745 0,-1.289617 0,-0.4298729 0,-0.8597454 0,-1.2896179 0,-0.1798971 -0.01494,-0.3671856 0,-0.5464481 0.0037,-0.044166 0.0187,-0.086941 0.02186,-0.1311475 0.0073,-0.1017445 -0.0073,-0.2042665 0,-0.306011 0.01098,-0.1536568 0.03192,-0.3056814 0.04372,-0.4590164 0.0034,-0.043587 -0.0062,-0.087871 0,-0.1311475 0.0085,-0.059478 0.03522,-0.1153856 0.04372,-0.1748634 0.01446,-0.1012357 0.0083,-0.2046445 0.02186,-0.3060109 0.02024,-0.1517799 0.05385,-0.3066347 0.06557,-0.4590164 0.02847,-0.3700849 0.04372,-0.7427442 0.04372,-1.1147541 0,-0.4298725 0,-0.859745 0,-1.2896175 0,-0.2721337 0.03871,-0.6118371 -0.02186,-0.8743169 -0.01196,-0.05183 -0.06259,-0.1470372 -0.08743,-0.1967213 -0.01996,-0.039928 -0.09659,-0.2015571 -0.131148,-0.2404372 -0.03099,-0.034869 -0.07442,-0.056437 -0.10929,-0.087432 C 21.173022,2.4100264 21.226315,2.4224169 21.071046,2.3388105 20.83474,2.2115688 20.54653,2.1520336 20.284161,2.1202313 c -0.551845,-0.06689 -0.96727,-0.08584 -1.530055,-0.1092896 -0.365449,-0.015227 -0.72684,-0.021858 -1.092896,-0.021858 -0.102003,0 -0.204426,-0.00923 -0.306011,0 -0.426097,0.038736 -0.839747,0.1163885 -1.267759,0.1311476 -0.109225,0.00377 -0.21858,0 -0.327869,0 -0.18215,0.014572 -0.363998,0.03358 -0.546448,0.043716 -0.276198,0.015344 -0.556583,0.00156 -0.830601,0.043716 -0.344336,0.052975 -0.652075,0.2065514 -0.983607,0.3060109 -0.100524,0.030157 -0.205108,0.036744 -0.306011,0.065574 -0.29015,0.0829 -0.431708,0.2131098 -0.743169,0.1092896 z"
     id="path28" />
  <ellipse
     style="fill:#44c298;fill-opacity:1;stroke-width:1.11285"
     id="path30"
     cx="16.984375"
     cy="7.015625"
     rx="2.109375"
     ry="2.046875" />
  <ellipse
     style="fill:#44c298;fill-opacity:1;stroke-width:1.11285"
     id="path30-2"
     cx="6.953125"
     cy="7.046875"
     rx="2.109375"
     ry="2.046875" />
  <ellipse
     style="fill:#44c298;fill-opacity:1;stroke-width:1.11285"
     id="path30-2-7"
     cx="7"
     cy="16.859375"
     rx="2.109375"
     ry="2.046875" />
  <ellipse
     style="fill:#44c298;fill-opacity:1;stroke-width:1.11285"
     id="path30-2-7-6"
     cx="16.9375"
     cy="16.84375"
     rx="2.109375"
     ry="2.046875" />
  <ellipse
     style="fill:#44c298;fill-opacity:1;stroke-width:1.11285"
     id="path30-2-7-8"
     cx="12.03125"
     cy="11.96875"
     rx="2.109375"
     ry="2.046875" />
</svg>
